<svg xmlns="http://www.w3.org/2000/svg" version="1.1" xmlns:xlink="http://www.w3.org/1999/xlink" xmlns:svgjs="http://svgjs.dev/svgjs" width="1000" height="262" viewBox="0 0 1000 262"><g transform="matrix(1,0,0,1,-0.6060591224975269,0.09836643299183834)"><svg viewBox="0 0 396 104" data-background-color="#ffffff" preserveAspectRatio="xMidYMid meet" height="262" width="1000" xmlns="http://www.w3.org/2000/svg" xmlns:xlink="http://www.w3.org/1999/xlink"><g id="tight-bounds" transform="matrix(1,0,0,1,0.24000058749101072,-0.03904575836500612)"><svg viewBox="0 0 395.52 104.07808884631638" height="104.07808884631638" width="395.52"><g><svg viewBox="0 0 467.4066620771442 122.99451886889459" height="104.07808884631638" width="395.52"><g transform="matrix(1,0,0,1,71.8866620771442,38.00709158324511)"><svg viewBox="0 0 395.52 46.98033570240435" height="46.98033570240435" width="395.52"><g id="textblocktransform"><svg viewBox="0 0 395.52 46.98033570240435" height="46.98033570240435" width="395.52" id="textblock"><g><svg viewBox="0 0 395.52 46.98033570240435" height="46.98033570240435" width="395.52"><g transform="matrix(1,0,0,1,0,0)"><svg width="395.52" viewBox="5.760000228881836 -37.869998931884766 322.8800048828125 38.36000061035156" height="46.98033570240435" data-palette-color="#31c48d"><path d="M28.56-27.78L28.56-27.78Q28.56-20.26 22.88-19.51L22.88-19.51 22.88-19.43Q26.39-19.17 28.13-17.43L28.13-17.43Q30.13-15.38 30.13-11.49 30.13-7.59 29.24-5.44 28.34-3.3 26.76-2.1L26.76-2.1Q24.05 0 18.24 0L18.24 0 5.76 0 5.76-37.23Q12.52-37.87 16.92-37.87 21.31-37.87 23.36-37.19 25.42-36.52 26.56-35.25L26.56-35.25Q28.56-33.03 28.56-27.78ZM9.91-20.68L15.41-20.68Q20.31-20.68 22.22-22.07L22.22-22.07Q24.39-23.63 24.39-27.88L24.39-27.88 24.39-28.39Q24.39-31.67 22.95-33.06L22.95-33.06Q21.51-34.42 18.04-34.42L18.04-34.42Q15.14-34.42 13.11-34.3L13.11-34.3 9.91-34.11 9.91-20.68ZM9.91-3.47L18.75-3.47Q22.34-3.47 23.88-4.83L23.88-4.83Q25.81-6.57 25.81-11.04L25.81-11.04Q25.81-16.21 22.02-17.09L22.02-17.09Q20.87-17.36 19.53-17.36L19.53-17.36 9.91-17.36 9.91-3.47ZM38.52-17.21L38.52-37.35 42.62-37.35 42.62-17.38Q42.62-11.47 43.14-9.33 43.65-7.18 44.32-6.09 44.99-5 46.07-4.35L46.07-4.35Q48.09-3.1 51.65-3.1 55.2-3.1 56.99-3.71 58.79-4.32 59.78-5.91 60.76-7.5 61.11-10.28 61.45-13.06 61.45-17.38L61.45-17.38 61.45-37.35 65.55-37.35 65.55-17.53Q65.55-11.25 65.09-8.87 64.62-6.49 63.8-4.83 62.99-3.17 61.5-2L61.5-2Q58.37 0.49 52.17 0.49L52.17 0.49Q42.94 0.49 40.26-4.79L40.26-4.79Q38.77-7.74 38.6-12.6L38.6-12.6Q38.52-14.82 38.52-17.21L38.52-17.21ZM76.51 0L76.51-37.13Q76.51-37.13 80.17-37.4L80.17-37.4Q85.66-37.84 88.94-37.84 92.21-37.84 94.16-37.59 96.11-37.33 97.59-36.71 99.07-36.08 100.1-35.01 101.14-33.94 101.8-32.28L101.8-32.28Q103.05-29.17 103.05-23.05L103.05-23.05 103.05-19.26Q103.05-12.01 101.97-8.25L101.97-8.25Q100.73-3.91 97.5-2L97.5-2Q94.18 0 87.76 0L87.76 0 76.51 0ZM97.24-31.42Q96.36-32.81 94.7-33.52 93.04-34.23 89.59-34.23 86.15-34.23 80.66-33.81L80.66-33.81 80.66-3.49 88.42-3.49Q92.96-3.49 95.16-4.98L95.16-4.98Q97.31-6.42 98.04-9.94L98.04-9.94Q98.68-12.82 98.68-19.26L98.68-19.26 98.68-23.07Q98.68-29.15 97.24-31.42L97.24-31.42ZM137.61-36.06L136.64-32.28Q130.75-34.33 125.33-34.33L125.33-34.33Q119.74-34.33 118.06-29.74L118.06-29.74Q117.06-27.03 116.95-23.57 116.84-20.12 116.84-17.6L116.84-17.6 116.84-15.19Q116.84-7.4 119.45-4.86L119.45-4.86Q121.01-3.34 123.63-3.08L123.63-3.08Q124.85-2.93 126.14-2.93 127.43-2.93 128.64-3.06 129.85-3.2 130.95-3.42L130.95-3.42Q133.17-3.86 134.27-4.39L134.27-4.39 134.27-15.92 126.73-15.92 126.73-19.29 138.35-19.29 138.35-2.56Q136.05-0.83 130.22 0.15L130.22 0.15Q128.19 0.49 125.6 0.49 123.01 0.49 120.85-0.04 118.69-0.56 117.19-1.57 115.69-2.59 114.76-4.1 113.84-5.62 113.32-7.59L113.32-7.59Q112.49-10.91 112.49-15.78 112.49-20.65 112.66-23.47 112.83-26.29 113.33-28.58 113.84-30.86 114.74-32.59 115.64-34.33 117.11-35.5L117.11-35.5Q120.09-37.84 125.6-37.84L125.6-37.84Q131.9-37.84 136.37-36.45L136.37-36.45 137.61-36.06ZM147.26 0L147.26-37.35 168.42-37.35 168.42-33.74 151.41-33.74 151.41-20.85 165.13-20.85 165.13-17.26 151.41-17.26 151.41-3.59 169.08-3.59 169.08 0 147.26 0ZM180.92 0L180.92-33.74 170.96-33.74 170.96-37.35 195.37-37.35 195.37-33.74 185.07-33.74 185.07 0 180.92 0ZM236.7-27.78L236.7-27.78Q236.7-20.26 231.01-19.51L231.01-19.51 231.01-19.43Q234.53-19.17 236.26-17.43L236.26-17.43Q238.26-15.38 238.26-11.49 238.26-7.59 237.37-5.44 236.48-3.3 234.89-2.1L234.89-2.1Q232.18 0 226.37 0L226.37 0 213.9 0 213.9-37.23Q220.66-37.87 225.06-37.87 229.45-37.87 231.5-37.19 233.55-36.52 234.7-35.25L234.7-35.25Q236.7-33.03 236.7-27.78ZM218.05-20.68L223.54-20.68Q228.45-20.68 230.35-22.07L230.35-22.07Q232.53-23.63 232.53-27.88L232.53-27.88 232.53-28.39Q232.53-31.67 231.09-33.06L231.09-33.06Q229.65-34.42 226.18-34.42L226.18-34.42Q223.27-34.42 221.25-34.3L221.25-34.3 218.05-34.11 218.05-20.68ZM218.05-3.47L226.89-3.47Q230.48-3.47 232.01-4.83L232.01-4.83Q233.94-6.57 233.94-11.04L233.94-11.04Q233.94-16.21 230.16-17.09L230.16-17.09Q229.01-17.36 227.67-17.36L227.67-17.36 218.05-17.36 218.05-3.47ZM260.99 0.49L259.48 0.49Q250.79 0.49 248-4.98L248-4.98Q246.37-8.15 246.07-13.45L246.07-13.45Q245.95-15.94 245.95-18.87 245.95-21.8 246.12-24.43 246.29-27.05 246.79-29.17 247.29-31.3 248.21-32.92 249.13-34.55 250.61-35.64L250.61-35.64Q253.69-37.84 259.48-37.84L259.48-37.84 260.99-37.84Q270.05-37.84 272.59-32.96L272.59-32.96Q274.17-29.91 274.37-24.46L274.37-24.46Q274.47-21.8 274.47-18.84 274.47-15.87 274.32-13.37 274.17-10.86 273.71-8.74 273.25-6.62 272.36-4.91 271.46-3.2 269.95-2L269.95-2Q266.83 0.49 260.99 0.49L260.99 0.49ZM259.48-3.03L260.94-3.03Q263.63-3.03 265.4-3.61 267.17-4.2 268.19-5.66L268.19-5.66Q270.1-8.37 270.1-16.06L270.1-16.06 270.1-18.7Q270.1-22.39 269.9-25.27 269.71-28.15 268.85-30.13L268.85-30.13Q267.09-34.23 261.23-34.23L261.23-34.23 259.18-34.23Q253.23-34.23 251.57-30.4L251.57-30.4Q250.52-27.95 250.42-24.63 250.32-21.31 250.32-18.7L250.32-18.7 250.32-16.06Q250.32-8.86 252.47-5.91L252.47-5.91Q254.55-3.03 259.48-3.03L259.48-3.03ZM284.62 0L284.62-37.35 288.77-37.35 288.77-3.59 303.57-3.59 303.57 0 284.62 0ZM314.18 0L314.18-33.74 304.22-33.74 304.22-37.35 328.64-37.35 328.64-33.74 318.33-33.74 318.33 0 314.18 0Z" opacity="1" transform="matrix(1,0,0,1,0,0)" fill="#31c48d" class="undefined-text-0" data-fill-palette-color="primary" id="text-0"></path></svg></g></svg></g></svg></g></svg></g><g><svg viewBox="0 0 60.795732345863385 122.99451886889459" height="122.99451886889459" width="60.795732345863385"><g><svg xmlns="http://www.w3.org/2000/svg" xmlns:xlink="http://www.w3.org/1999/xlink" version="1.1" x="0" y="0" viewBox="30.2450008392334 12.831000328063965 36.7449951171875 74.33799743652344" enable-background="new 0 0 100 100" xml:space="preserve" height="122.99451886889459" width="60.795732345863385" class="icon-icon-0" data-fill-palette-color="accent" id="icon-0"><polygon points="66.99,45.015 55.259,45.04 63.866,12.831 30.245,55.731 41.977,55.707 33.368,87.169 " fill="#31c48d" data-fill-palette-color="accent"></polygon></svg></g></svg></g></svg></g><defs></defs></svg><rect width="395.52" height="104.07808884631638" fill="none" stroke="none" visibility="hidden"></rect></g></svg></g></svg>