<svg xmlns="http://www.w3.org/2000/svg" version="1.1" xmlns:xlink="http://www.w3.org/1999/xlink" xmlns:svgjs="http://svgjs.dev/svgjs" width="1000" height="204" viewBox="0 0 1000 204"><g transform="matrix(1,0,0,1,-0.6060606060606233,-0.017489353510939054)"><svg viewBox="0 0 396 81" data-background-color="#ffffff" preserveAspectRatio="xMidYMid meet" height="204" width="1000" xmlns="http://www.w3.org/2000/svg" xmlns:xlink="http://www.w3.org/1999/xlink"><g id="tight-bounds" transform="matrix(1,0,0,1,0.2400000000000091,0.00694430212934094)"><svg viewBox="0 0 395.52 80.98611139574133" height="80.98611139574133" width="395.52"><g><svg viewBox="0 0 479.598066462258 98.2018164332893" height="80.98611139574133" width="395.52"><g transform="matrix(1,0,0,1,84.07806646225798,13.57203107001321)"><svg viewBox="0 0 395.52 71.05775429326287" height="71.05775429326287" width="395.52"><g><svg viewBox="0 0 395.52 71.05775429326287" height="71.05775429326287" width="395.52"><g><svg viewBox="0 0 395.52 71.05775429326287" height="71.05775429326287" width="395.52"><g transform="matrix(1,0,0,1,0,0)"><svg width="395.52" viewBox="3.25 -36 264.13 47.6" height="71.05775429326287" data-palette-color="#528265"><g class="undefined-text-0" data-fill-palette-color="primary" id="text-0"><path d="M17.95 0.6L17.95 0.6Q15.15 0.6 13.05-0.45 10.95-1.5 9.65-3.4L9.65-3.4 8.95 0 3.25 0 3.25-36 9.65-36 9.65-21.25Q10.85-22.9 12.83-24.15 14.8-25.4 17.95-25.4L17.95-25.4Q21.45-25.4 24.2-23.7 26.95-22 28.55-19.05 30.15-16.1 30.15-12.35L30.15-12.35Q30.15-8.6 28.55-5.68 26.95-2.75 24.2-1.07 21.45 0.6 17.95 0.6ZM16.6-5L16.6-5Q19.65-5 21.65-7.05 23.65-9.1 23.65-12.35L23.65-12.35Q23.65-15.6 21.65-17.7 19.65-19.8 16.6-19.8L16.6-19.8Q13.5-19.8 11.53-17.73 9.55-15.65 9.55-12.4L9.55-12.4Q9.55-9.15 11.53-7.08 13.5-5 16.6-5ZM45.15 0.6L45.15 0.6Q40.5 0.6 37.97-2.3 35.45-5.2 35.45-10.8L35.45-10.8 35.45-24.8 41.8-24.8 41.8-11.4Q41.8-8.2 43.1-6.5 44.4-4.8 47.2-4.8L47.2-4.8Q49.85-4.8 51.57-6.7 53.3-8.6 53.3-12L53.3-12 53.3-24.8 59.7-24.8 59.7 0 54.05 0 53.55-4.2Q52.4-2 50.22-0.7 48.05 0.6 45.15 0.6ZM77.65 0.6L77.65 0.6Q74.15 0.6 71.4-1.1 68.65-2.8 67.05-5.75 65.45-8.7 65.45-12.45L65.45-12.45Q65.45-16.2 67.05-19.13 68.65-22.05 71.4-23.73 74.15-25.4 77.65-25.4L77.65-25.4Q80.45-25.4 82.55-24.35 84.65-23.3 85.95-21.4L85.95-21.4 85.95-36 92.34-36 92.34 0 86.65 0 85.95-3.55Q84.75-1.9 82.77-0.65 80.8 0.6 77.65 0.6ZM79-5L79-5Q82.09-5 84.07-7.08 86.05-9.15 86.05-12.4L86.05-12.4Q86.05-15.65 84.07-17.73 82.09-19.8 79-19.8L79-19.8Q75.95-19.8 73.95-17.75 71.95-15.7 71.95-12.45L71.95-12.45Q71.95-9.2 73.95-7.1 75.95-5 79-5ZM109.34-7.4L109.34-7.4Q107.54-7.4 105.99-7.8L105.99-7.8 104.14-5.95Q104.99-5.5 106.44-5.2 107.89-4.9 111.14-4.6L111.14-4.6Q116.09-4.15 118.34-2.25 120.59-0.35 120.59 3L120.59 3Q120.59 5.2 119.39 7.18 118.19 9.15 115.69 10.38 113.19 11.6 109.29 11.6L109.29 11.6Q103.99 11.6 100.74 9.63 97.49 7.65 97.49 3.7L97.49 3.7Q97.49 0.35 100.74-2.1L100.74-2.1Q99.74-2.55 99.02-3.05 98.29-3.55 97.74-4.1L97.74-4.1 97.74-5.25 102.09-9.85Q99.19-12.4 99.19-16.4L99.19-16.4Q99.19-18.9 100.42-20.95 101.64-23 103.89-24.2 106.14-25.4 109.34-25.4L109.34-25.4Q111.44-25.4 113.24-24.8L113.24-24.8 122.64-24.8 122.64-20.9 118.39-20.6Q119.39-18.7 119.39-16.4L119.39-16.4Q119.39-13.9 118.19-11.85 116.99-9.8 114.72-8.6 112.44-7.4 109.34-7.4ZM109.34-12.3L109.34-12.3Q111.29-12.3 112.57-13.35 113.84-14.4 113.84-16.35L113.84-16.35Q113.84-18.3 112.57-19.35 111.29-20.4 109.34-20.4L109.34-20.4Q107.29-20.4 106.04-19.35 104.79-18.3 104.79-16.35L104.79-16.35Q104.79-14.4 106.04-13.35 107.29-12.3 109.34-12.3ZM103.34 3.05L103.34 3.05Q103.34 4.9 105.07 5.83 106.79 6.75 109.29 6.75L109.29 6.75Q111.69 6.75 113.19 5.78 114.69 4.8 114.69 3.15L114.69 3.15Q114.69 1.8 113.72 0.9 112.74 0 109.84-0.2L109.84-0.2Q107.79-0.35 106.04-0.65L106.04-0.65Q104.59 0.15 103.97 1.1 103.34 2.05 103.34 3.05ZM139.34 0.6L139.34 0.6Q135.59 0.6 132.69-1 129.79-2.6 128.14-5.5 126.49-8.4 126.49-12.2L126.49-12.2Q126.49-16.05 128.12-19.05 129.74-22.05 132.62-23.73 135.49-25.4 139.39-25.4L139.39-25.4Q143.04-25.4 145.84-23.8 148.64-22.2 150.22-19.43 151.79-16.65 151.79-13.25L151.79-13.25Q151.79-12.7 151.77-12.1 151.74-11.5 151.69-10.85L151.69-10.85 132.84-10.85Q133.04-7.95 134.87-6.3 136.69-4.65 139.29-4.65L139.29-4.65Q141.24-4.65 142.56-5.53 143.89-6.4 144.54-7.8L144.54-7.8 151.04-7.8Q150.34-5.45 148.72-3.53 147.09-1.6 144.72-0.5 142.34 0.6 139.34 0.6ZM139.39-20.2L139.39-20.2Q137.04-20.2 135.24-18.88 133.44-17.55 132.94-14.85L132.94-14.85 145.29-14.85Q145.14-17.3 143.49-18.75 141.84-20.2 139.39-20.2ZM172.59 0L168.24 0Q164.34 0 161.99-1.9 159.64-3.8 159.64-8.65L159.64-8.65 159.64-19.45 155.39-19.45 155.39-24.8 159.64-24.8 160.39-31.45 166.04-31.45 166.04-24.8 172.74-24.8 172.74-19.45 166.04-19.45 166.04-8.6Q166.04-6.8 166.81-6.13 167.59-5.45 169.49-5.45L169.49-5.45 172.59-5.45 172.59 0Z" fill="#528265" data-fill-palette-color="primary"></path><path d="M190.69 0.6L190.69 0.6Q187.89 0.6 185.79-0.45 183.69-1.5 182.39-3.4L182.39-3.4 181.69 0 175.99 0 175.99-36 182.39-36 182.39-21.25Q183.59-22.9 185.57-24.15 187.54-25.4 190.69-25.4L190.69-25.4Q194.19-25.4 196.94-23.7 199.69-22 201.29-19.05 202.89-16.1 202.89-12.35L202.89-12.35Q202.89-8.6 201.29-5.68 199.69-2.75 196.94-1.07 194.19 0.6 190.69 0.6ZM189.34-5L189.34-5Q192.39-5 194.39-7.05 196.39-9.1 196.39-12.35L196.39-12.35Q196.39-15.6 194.39-17.7 192.39-19.8 189.34-19.8L189.34-19.8Q186.24-19.8 184.27-17.73 182.29-15.65 182.29-12.4L182.29-12.4Q182.29-9.15 184.27-7.08 186.24-5 189.34-5ZM220.49 0.6L220.49 0.6Q216.89 0.6 214.01-1.05 211.14-2.7 209.46-5.63 207.79-8.55 207.79-12.4L207.79-12.4Q207.79-16.25 209.49-19.18 211.19-22.1 214.06-23.75 216.94-25.4 220.54-25.4L220.54-25.4Q224.09-25.4 226.96-23.75 229.84-22.1 231.51-19.18 233.19-16.25 233.19-12.4L233.19-12.4Q233.19-8.55 231.51-5.63 229.84-2.7 226.94-1.05 224.04 0.6 220.49 0.6ZM220.49-4.95L220.49-4.95Q222.99-4.95 224.84-6.83 226.69-8.7 226.69-12.4L226.69-12.4Q226.69-16.1 224.84-17.98 222.99-19.85 220.54-19.85L220.54-19.85Q217.99-19.85 216.16-17.98 214.34-16.1 214.34-12.4L214.34-12.4Q214.34-8.7 216.16-6.83 217.99-4.95 220.49-4.95ZM245.29 0L238.89 0 238.89-36 245.29-36 245.29 0ZM267.23 0L262.88 0Q258.98 0 256.63-1.9 254.28-3.8 254.28-8.65L254.28-8.65 254.28-19.45 250.03-19.45 250.03-24.8 254.28-24.8 255.03-31.45 260.68-31.45 260.68-24.8 267.38-24.8 267.38-19.45 260.68-19.45 260.68-8.6Q260.68-6.8 261.46-6.13 262.23-5.45 264.13-5.45L264.13-5.45 267.23-5.45 267.23 0Z" fill="#528265" data-fill-palette-color="primary"></path></g></svg></g></svg></g></svg></g></svg></g><g><svg viewBox="0 0 67.30303605972165 98.2018164332893" height="98.2018164332893" width="67.30303605972165"><g><svg xmlns="http://www.w3.org/2000/svg" xmlns:xlink="http://www.w3.org/1999/xlink" version="1.1" x="0" y="0" viewBox="31.518861169915812 23.100000000000005 36.94059616588996 53.89999999999999" enable-background="new 0 0 100 100" xml:space="preserve" height="98.2018164332893" width="67.30303605972165" class="icon-icon-0" data-fill-palette-color="accent" id="icon-0"><g fill="#528265" data-fill-palette-color="accent"><path d="M68.3 43.9c-0.3-0.8-1-1.3-1.9-1.3H55.8l7.9-16.7c0.3-0.6 0.2-1.3-0.1-1.9-0.4-0.6-1-0.9-1.7-0.9H45.2c-0.8 0-1.5 0.4-1.8 1.2L31.7 49.1c-0.3 0.6-0.2 1.3 0.1 1.9 0.4 0.6 1 0.9 1.7 0.9h7.5l-8.5 22.4c-0.3 0.9 0 1.9 0.8 2.4 0.3 0.2 0.7 0.3 1.1 0.3 0.5 0 1-0.2 1.4-0.5l32-30.4C68.5 45.5 68.6 44.6 68.3 43.9zM39.4 67.5l6.4-16.9c0.2-0.6 0.1-1.3-0.2-1.8s-1-0.9-1.6-0.9h-7.3L46.4 27h12.3l-7.9 16.7c-0.3 0.6-0.2 1.3 0.1 1.9 0.4 0.6 1 0.9 1.7 0.9h8.9L39.4 67.5z" fill="#528265" data-fill-palette-color="accent"></path><path d="M48.3 30.2c-0.5-0.2-1.1 0-1.3 0.4l-5.2 10.5c-0.2 0.5 0 1.1 0.5 1.3 0.1 0.1 0.3 0.1 0.4 0.1 0.4 0 0.7-0.2 0.9-0.6l5.2-10.5C49 31.1 48.8 30.5 48.3 30.2z" fill="#528265" data-fill-palette-color="accent"></path></g></svg></g></svg></g></svg></g><defs></defs></svg><rect width="395.52" height="80.98611139574133" fill="none" stroke="none" visibility="hidden"></rect></g></svg></g></svg>